<svg width="258" height="258" viewBox="0 0 258 258" fill="none" xmlns="http://www.w3.org/2000/svg">
<path d="M139.921 195.435H86.1777V236.886H139.921V195.435Z" fill="#EBEBEB"/>
<path d="M126.456 236.594C126.382 236.594 126.322 227.355 126.322 215.959C126.322 204.56 126.382 195.323 126.456 195.323C126.53 195.323 126.59 204.56 126.59 215.959C126.59 227.354 126.53 236.594 126.456 236.594Z" fill="#E0E0E0"/>
<path d="M135.364 227.452H131.244V232.109H135.364V227.452Z" fill="#FAFAFA"/>
<path d="M108.678 195.542H102.573V204.387H108.678V195.542Z" fill="#E0E0E0"/>
<path d="M108.678 227.919H102.573V236.764H108.678V227.919Z" fill="#E0E0E0"/>
<path d="M237.436 185.042H169.672V237.308H237.436V185.042Z" fill="#EBEBEB"/>
<path d="M220.457 236.939C220.383 236.939 220.323 225.289 220.323 210.921C220.323 196.549 220.384 184.901 220.457 184.901C220.531 184.901 220.592 196.549 220.592 210.921C220.592 225.289 220.532 236.939 220.457 236.939Z" fill="#E0E0E0"/>
<path d="M231.69 225.412H226.495V231.284H231.69V225.412Z" fill="#FAFAFA"/>
<path d="M198.041 185.177H190.344V196.33H198.041V185.177Z" fill="#E0E0E0"/>
<path d="M198.041 226H190.344V237.153H198.041V226Z" fill="#E0E0E0"/>
<path d="M42.0339 186.58C44.7764 185.165 48.0061 184.981 51.051 185.484C52.6867 185.754 54.3921 186.244 55.5051 187.473C56.6181 188.701 56.8291 190.864 55.551 191.92C54.7899 192.548 53.729 192.643 52.7424 192.632C50.359 192.604 47.714 192.185 45.81 193.619C44.7233 194.437 44.0004 195.797 42.7011 196.2C41.4302 196.593 39.9962 195.843 39.3223 194.697C38.6484 193.55 38.6262 192.116 38.9399 190.823C38.9399 190.823 39.2712 188.006 42.0339 186.58Z" fill="#EBEBEB"/>
<path d="M35.7505 174.45C37.4275 176.846 40.6871 176.053 42.1985 174.591C43.7098 173.129 44.3487 171.01 44.9302 168.989C46.2589 164.372 47.5984 159.529 46.6103 154.827C46.3151 153.421 45.7893 152.019 44.8017 150.976C43.8141 149.934 42.295 149.313 40.9064 149.68C39.263 150.114 38.2413 151.724 37.5034 153.256C35.3336 157.757 34.1845 162.746 34.1675 167.743C34.1587 170.076 34.4342 172.524 35.7505 174.45Z" fill="#EBEBEB"/>
<path d="M31.1447 177.887C32.9657 175.726 33.3114 172.574 32.5008 169.867C31.6907 167.159 29.8599 164.856 27.7505 162.976C25.2768 160.772 22.3696 159.056 19.2437 157.957C18.0136 157.524 16.7163 157.183 15.4181 157.307C14.1198 157.431 12.8128 158.095 12.2075 159.249C11.3123 160.957 12.1704 163.028 13.0992 164.718C14.7349 167.694 16.6049 170.542 18.6864 173.226C20.3608 175.385 22.2793 177.514 24.8315 178.49C27.3836 179.466 30.0348 179.351 31.3878 177.581" fill="#EBEBEB"/>
<path d="M35.637 210.582C35.6685 210.584 35.7196 210.196 35.7887 209.494C35.8656 208.702 35.9626 207.707 36.0777 206.524C36.216 205.274 36.3986 203.786 36.7459 202.167C37.0921 200.551 37.6339 198.8 38.3295 197.024C39.0498 195.259 39.9286 193.655 40.9554 192.372C41.9751 191.083 43.1603 190.15 44.2749 189.612C45.3858 189.063 46.3822 188.841 47.0705 188.741C47.7651 188.67 48.1541 188.616 48.1541 188.585C48.1547 188.554 47.7646 188.548 47.0515 188.568C46.3445 188.615 45.3074 188.794 44.1361 189.326C42.9616 189.847 41.7036 190.795 40.6345 192.11C39.5566 193.42 38.6458 195.06 37.9126 196.857C37.2046 198.664 36.6711 200.432 36.3403 202.083C36.0106 203.731 35.8599 205.235 35.7614 206.495C35.667 207.756 35.6313 208.778 35.6143 209.484C35.5983 210.189 35.6061 210.581 35.637 210.582Z" fill="#E0E0E0"/>
<path d="M35.8414 208.297C35.8568 208.296 35.8666 208.122 35.8708 207.792C35.8697 207.412 35.8687 206.934 35.8672 206.347C35.8635 205.094 35.8641 203.28 35.9311 201.041C36.0421 196.561 36.4275 191.74 37.1726 184.944C37.878 178.553 38.8249 171.115 39.8244 166.28C40.0385 165.18 40.2542 164.19 40.4575 163.324C40.651 162.455 40.8166 161.706 40.9761 161.1C41.1133 160.53 41.2248 160.065 41.3135 159.697C41.3858 159.374 41.4167 159.203 41.4018 159.198C41.3868 159.194 41.327 159.357 41.2263 159.672C41.1164 160.035 40.9776 160.494 40.8068 161.056C40.6211 161.657 40.4301 162.4 40.2129 163.266C39.9859 164.129 39.748 165.116 39.5132 166.214C38.5246 170.596 37.4776 176.72 36.7258 183.532C35.9791 190.343 35.6432 196.544 35.6133 201.035C35.5865 203.28 35.6344 205.098 35.6917 206.352C35.7273 206.939 35.7567 207.417 35.78 207.795C35.8052 208.125 35.8259 208.297 35.8414 208.297Z" fill="#E0E0E0"/>
<path d="M35.8713 196.336C35.9028 196.335 35.8971 195.799 35.861 194.827C35.8052 193.858 35.6721 192.457 35.3991 190.74C35.1097 189.027 34.7051 186.994 34.0699 184.785C33.7944 183.774 33.1473 181.354 31.5797 177.738C29.5142 172.838 26.7082 168.832 24.2664 166.351C23.6937 165.693 23.0559 165.218 22.5461 164.752C22.2819 164.529 22.0487 164.306 21.8113 164.13C21.5724 163.965 21.35 163.812 21.1441 163.67C20.3407 163.12 19.8908 162.831 19.8743 162.856C19.802 162.954 21.6741 164.056 24.0373 166.57C26.3913 169.08 29.1189 173.058 31.1679 177.917C32.3104 180.552 33.1071 182.903 33.6726 184.898C34.3259 187.086 34.7593 189.099 35.087 190.794C35.3986 192.493 35.5787 193.88 35.6876 194.841C35.7763 195.804 35.8408 196.337 35.8713 196.336Z" fill="#E0E0E0"/>
<path d="M23.5105 215.618L24.7087 232.037H45.8027L47.0009 215.618H23.5105Z" fill="#EBEBEB"/>
<path d="M49.5179 209.146H21.4728V215.617H49.5179V209.146Z" fill="#EBEBEB"/>
<path d="M21.4728 231.409V233.203H22.7907H49.0546V231.409H21.4728Z" fill="#E0E0E0"/>
<path d="M24.0822 236.161L22.7907 233.004H48.0499L46.5427 236.161H24.0822Z" fill="#E0E0E0"/>
<path d="M46.6092 220.984C46.6139 220.988 46.5803 221.039 46.5112 221.135C46.4276 221.246 46.3239 221.384 46.1959 221.553C45.8966 221.936 45.4849 222.463 44.9673 223.126L44.9126 223.196L44.8595 223.123C44.087 222.054 43.055 220.627 41.8404 218.947H42.0143C41.1164 220.218 40.1159 221.635 39.0421 223.156L38.9487 223.288L38.8445 223.163C37.7475 221.858 36.556 220.441 35.3197 218.969L35.523 218.967C35.4616 219.044 35.3955 219.127 35.329 219.21C34.2356 220.581 33.1778 221.907 32.1772 223.162L32.072 223.293L31.975 223.156C30.9048 221.642 29.9053 220.228 29.0013 218.949L29.1741 218.957C27.7087 220.627 26.4656 222.043 25.5121 223.129L25.4471 223.204L25.3975 223.12C24.9145 222.309 24.5296 221.662 24.251 221.193C24.1313 220.984 24.0342 220.815 23.9568 220.68C23.8918 220.563 23.8614 220.501 23.8671 220.497C23.8727 220.494 23.9145 220.549 23.9899 220.66C24.0755 220.789 24.1829 220.952 24.3155 221.153C24.6086 221.614 25.0126 222.248 25.5193 223.045L25.4047 223.036C26.3433 221.936 27.5663 220.502 29.0085 218.812L29.0993 218.706L29.1813 218.821C30.0931 220.094 31.1019 221.502 32.1814 223.01L31.9796 223.004C32.9781 221.747 34.0333 220.419 35.1241 219.047C35.1907 218.963 35.2567 218.88 35.3181 218.803L35.4182 218.677L35.5214 218.801C36.7547 220.275 37.9425 221.695 39.0364 223.003L38.8393 223.011C39.9239 221.498 40.9343 220.088 41.8409 218.823L41.9291 218.7L42.0148 218.823C43.2042 220.521 44.214 221.964 44.9699 223.044L44.8626 223.041C45.4013 222.395 45.8291 221.882 46.1407 221.508C46.2795 221.348 46.392 221.217 46.4828 221.112C46.5618 221.024 46.6046 220.98 46.6092 220.984Z" fill="#F5F5F5"/>
<path d="M47.2945 215.509C47.2945 215.582 42.0091 215.641 35.491 215.641C28.9703 215.641 23.6859 215.582 23.6859 215.509C23.6859 215.437 28.9703 215.378 35.491 215.378C42.0091 215.378 47.2945 215.437 47.2945 215.509Z" fill="#F5F5F5"/>
<path d="M195.268 29.3118L190.944 29.3351L191.06 50.8523L195.385 50.829L195.268 29.3118Z" fill="#E0E0E0"/>
<path d="M164.681 29.3688L153.482 29.4293L153.547 41.3081L164.745 41.2477L164.681 29.3688Z" fill="#EBEBEB"/>
<path d="M175.826 29.3085L164.628 29.369L164.692 41.2478L175.89 41.1873L175.826 29.3085Z" fill="#F5F5F5"/>
<path d="M153.496 32.7165C160.938 32.7779 168.398 32.7345 175.839 32.6138C175.992 32.6112 175.991 32.377 175.837 32.3759C168.396 32.3346 160.935 32.3713 153.495 32.5127C153.364 32.5147 153.365 32.7154 153.496 32.7165Z" fill="#E0E0E0"/>
<path d="M166.846 41.0501L146.501 41.1599L146.553 50.8401L166.898 50.7302L166.846 41.0501Z" fill="#EBEBEB"/>
<path d="M187.095 40.9404L166.75 41.0503L166.802 50.7305L187.147 50.6206L187.095 40.9404Z" fill="#F5F5F5"/>
<path d="M146.512 43.8574C160.027 44.0107 173.59 43.8734 187.105 43.6572C187.258 43.6546 187.257 43.4199 187.104 43.4194C173.588 43.3481 160.024 43.3559 146.511 43.6536C146.379 43.6567 146.38 43.8564 146.512 43.8574Z" fill="#E0E0E0"/>
<path d="M217.726 50.8456H138.903V54.3137H217.726V50.8456Z" fill="#E0E0E0"/>
<path d="M155.007 52.5133H151.808V64.3473H155.007V52.5133Z" fill="#E0E0E0"/>
<path d="M202.774 52.5133H199.574V64.3473H202.774V52.5133Z" fill="#E0E0E0"/>
<path d="M199.488 21.2877L195.164 21.3111L195.324 50.9047L199.648 50.8813L199.488 21.2877Z" fill="#EBEBEB"/>
<path d="M206.245 26.7971L199.526 26.8334L199.655 50.8155L206.375 50.7792L206.245 26.7971Z" fill="#F5F5F5"/>
<path d="M206.196 31.4249C206.196 31.4894 204.692 31.5416 202.837 31.5416C200.98 31.5416 199.477 31.4894 199.477 31.4249C199.477 31.3604 200.981 31.3083 202.837 31.3083C204.692 31.3088 206.196 31.361 206.196 31.4249Z" fill="#E0E0E0"/>
<path d="M206.196 30.4177C206.196 30.4822 204.692 30.5343 202.837 30.5343C200.98 30.5343 199.477 30.4822 199.477 30.4177C199.477 30.3532 200.981 30.3011 202.837 30.3011C204.692 30.3011 206.196 30.3532 206.196 30.4177Z" fill="#E0E0E0"/>
<path d="M206.196 47.1784C206.196 47.2429 204.692 47.295 202.837 47.295C200.98 47.295 199.477 47.2429 199.477 47.1784C199.477 47.1139 200.981 47.0618 202.837 47.0618C204.692 47.0623 206.196 47.1144 206.196 47.1784Z" fill="#E0E0E0"/>
<path d="M206.196 46.1712C206.196 46.2357 204.692 46.2878 202.837 46.2878C200.98 46.2878 199.477 46.2357 199.477 46.1712C199.477 46.1067 200.981 46.0546 202.837 46.0546C204.692 46.0546 206.196 46.1067 206.196 46.1712Z" fill="#E0E0E0"/>
<path d="M202.944 43.973C202.88 43.973 202.828 41.5535 202.828 38.5695C202.828 35.5844 202.88 33.1654 202.944 33.1654C203.009 33.1654 203.061 35.5844 203.061 38.5695C203.061 41.5535 203.008 43.973 202.944 43.973Z" fill="#E0E0E0"/>
<path d="M213.582 32.6943H206.268V50.7961H213.582V32.6943Z" fill="#EBEBEB"/>
<path d="M197.259 27.5916C197.945 27.5916 198.502 27.035 198.502 26.3485C198.502 25.662 197.945 25.1055 197.259 25.1055C196.572 25.1055 196.016 25.662 196.016 26.3485C196.016 27.035 196.572 27.5916 197.259 27.5916Z" fill="#E0E0E0"/>
<path d="M197.643 29.767H196.875V47.3719H197.643V29.767Z" fill="#E0E0E0"/>
<path d="M239.763 237.025C239.763 237.099 190.169 237.159 129.005 237.159C67.8205 237.159 18.237 237.099 18.237 237.025C18.237 236.951 67.8205 236.891 129.005 236.891C190.169 236.891 239.763 236.951 239.763 237.025Z" fill="#263238"/>
<path d="M76.9918 47.6531C79.4139 50.5923 80.7576 54.4009 80.7163 58.2094C80.6926 60.3859 80.2917 62.7859 81.5579 64.5563C82.5187 65.8999 84.2711 66.5723 85.0518 68.0284C85.9909 69.7792 85.19 71.9908 85.768 73.8917C86.5869 76.5863 89.7432 77.7132 91.6148 79.818C93.2376 81.6431 93.8382 84.3139 93.1844 86.6674C92.5307 89.0208 90.6545 90.9899 88.3464 91.7887C87.107 92.2175 85.6901 92.3093 84.5167 91.7247C83.2509 91.0936 82.4687 89.7995 81.835 88.5353C80.5889 86.0507 69.6641 72.6053 69.0454 69.8953" fill="#263238"/>
<path d="M69.0444 44.4833C64.5774 43.764 60.2838 46.73 58.4014 50.8446C56.519 54.9592 56.4679 59.6388 56.3291 64.1615C56.1903 68.6842 55.8725 73.4051 53.5639 77.2968C52.0985 79.7669 49.8296 81.9331 49.4736 84.7829C49.1552 87.3345 50.4756 89.9042 50.037 92.4378C49.6552 94.6437 47.9746 96.5627 48.0411 98.8006C48.1211 101.493 50.89 103.521 53.5825 103.593C56.2744 103.665 58.7899 102.255 60.9004 100.582C64.3251 97.8682 67.1012 94.3408 68.934 90.3743" fill="#263238"/>
<path d="M61.6955 55.1361C61.1052 50.4251 64.5134 46.1196 69.2972 45.6639C73.8061 45.2341 77.8133 48.5917 78.4888 53.0701C79.0811 56.9963 79.5904 60.9592 79.5724 62.3983C79.5172 66.7389 76.9774 68.4283 75.948 68.936C75.7132 69.0521 75.0651 69.1832 74.8056 69.2204C74.7896 69.2229 74.7782 69.2379 74.7813 69.2539L75.7452 74.2364C76.1822 77.5011 74.3597 80.4124 71.1007 80.8876C67.8308 81.3644 65.2745 78.8567 64.775 75.5899L61.6955 55.1361Z" fill="#FFBE9D"/>
<path d="M77.6012 54.9715C77.5295 55.0732 76.9562 54.7657 76.222 54.8745C75.4867 54.9731 75.0027 55.4298 74.9098 55.3513C74.8649 55.3173 74.9278 55.1439 75.1373 54.9385C75.3437 54.7347 75.7137 54.5118 76.1719 54.4468C76.6301 54.3828 77.0393 54.4948 77.286 54.6351C77.5367 54.776 77.6368 54.9256 77.6012 54.9715Z" fill="#263238"/>
<path d="M71.0671 56.5588C70.9954 56.6604 70.4216 56.3529 69.6879 56.4618C68.9531 56.5598 68.4686 57.0165 68.3757 56.938C68.3308 56.904 68.3927 56.7311 68.6038 56.5257C68.8102 56.3219 69.1801 56.099 69.6378 56.034C70.096 55.97 70.5057 56.082 70.7519 56.2223C71.0026 56.3632 71.1027 56.5128 71.0671 56.5588Z" fill="#263238"/>
<path d="M73.7457 60.4974C73.7364 60.4561 74.1812 60.3106 74.9077 60.1083C75.0924 60.0614 75.2648 59.9984 75.2777 59.8658C75.3019 59.7239 75.1941 59.533 75.0713 59.3281C74.8288 58.8999 74.5749 58.4509 74.3081 57.9803C73.241 56.0588 72.4397 54.4674 72.5171 54.4251C72.595 54.3828 73.5228 55.906 74.5899 57.8276C74.8484 58.3023 75.0955 58.7543 75.3308 59.1873C75.433 59.3901 75.5904 59.614 75.5357 59.9091C75.5058 60.0567 75.383 60.1785 75.2674 60.2286C75.1523 60.2827 75.047 60.3003 74.9552 60.3194C74.2163 60.4685 73.755 60.5392 73.7457 60.4974Z" fill="#263238"/>
<path d="M74.7756 69.2245C74.7756 69.2245 71.9727 69.871 68.1136 68.2554C68.1136 68.2554 69.7797 71.8422 75.0357 70.5671L74.7756 69.2245Z" fill="#EB996E"/>
<path d="M70.6977 54.6341C70.6543 54.8446 69.9072 54.8565 69.0599 55.0861C68.2085 55.2987 67.5501 55.6521 67.4097 55.4896C67.3463 55.4112 67.4397 55.2058 67.693 54.971C67.9433 54.7373 68.3612 54.4891 68.87 54.356C69.3793 54.2239 69.8649 54.2373 70.1977 54.3188C70.5326 54.4008 70.7152 54.5345 70.6977 54.6341Z" fill="#263238"/>
<path d="M76.9986 53.3436C76.8933 53.5293 76.3623 53.4297 75.7524 53.5108C75.1399 53.5701 74.6446 53.7868 74.5006 53.6294C74.4361 53.552 74.4929 53.373 74.6951 53.1826C74.8943 52.9927 75.2462 52.81 75.6668 52.7615C76.0868 52.714 76.4712 52.8126 76.708 52.9524C76.948 53.0923 77.0434 53.2538 76.9986 53.3436Z" fill="#263238"/>
<path d="M69.4753 57.5077C69.5258 57.8266 69.837 58.0469 70.1714 58.0005C70.5047 57.954 70.7348 57.6583 70.6848 57.3395C70.6342 57.0206 70.3225 56.7997 69.9892 56.8462C69.6548 56.8926 69.4247 57.1883 69.4753 57.5077Z" fill="#263238"/>
<path d="M75.9805 56.1C76.0305 56.4189 76.3427 56.6393 76.6766 56.5928C77.0099 56.5464 77.24 56.2507 77.19 55.9318C77.1394 55.6129 76.8278 55.3921 76.4944 55.4385C76.16 55.485 75.9299 55.7811 75.9805 56.1Z" fill="#263238"/>
<path d="M74.9015 61.9283C74.4289 61.7915 74.0217 62.0309 73.8303 62.3736C73.6384 62.7162 73.6843 63.1852 73.9603 63.4644C74.2364 63.7441 74.7276 63.7879 75.0326 63.5402C75.239 63.372 75.3432 63.1037 75.3695 62.8385C75.3938 62.5934 75.3541 62.3312 75.2029 62.1372C75.0517 61.9427 74.772 61.8385 74.547 61.9386" fill="#EB996E"/>
<path d="M77.916 49.5582C77.5801 47.9256 76.4557 46.5329 75.0873 45.5814C73.9247 44.7733 72.5496 44.2382 71.1347 44.1949C69.7193 44.1515 68.2689 44.6273 67.2467 45.6067C66.4907 46.3306 66.1032 47.3564 66.0681 48.4018L66.1502 47.6805C65.9381 48.2728 65.9386 48.9163 66.1595 49.4988C66.16 49.4999 66.16 49.5014 66.16 49.5025L66.1595 49.4988C66.2792 49.8152 66.4226 50.1315 66.5496 50.4488C66.9108 51.3508 67.6105 52.1119 68.4784 52.5479C68.8783 52.7486 69.3215 52.8833 69.7689 52.8621C70.2157 52.841 70.6667 52.6485 70.9381 52.2925C71.3257 51.7842 71.2808 51.0794 71.2178 50.4431C71.6017 51.0427 72.0088 51.6645 72.626 52.0195C73.2431 52.3745 74.1342 52.3621 74.5687 51.7976C74.9892 51.2517 74.8226 50.4669 74.579 49.8219C74.9733 50.423 75.5383 50.9111 76.1905 51.2145C76.5512 51.3822 76.9769 51.4922 77.3422 51.3343C77.6518 51.2001 77.8608 50.89 77.9397 50.5618C78.0192 50.2341 77.9841 49.8889 77.916 49.5582Z" fill="#263238"/>
<path d="M74.1879 50.906C74.1409 50.9075 74.1487 50.294 73.9505 49.3425C73.7514 48.407 73.2777 47.0845 72.1688 46.1072C71.6223 45.6247 70.9939 45.2909 70.3834 45.1433C69.772 44.9921 69.1904 45.0102 68.7219 45.1015C67.773 45.2945 67.3132 45.7444 67.2849 45.6975C67.2756 45.6872 67.3741 45.5664 67.6012 45.4023C67.8266 45.2382 68.1904 45.0416 68.6801 44.9162C69.1677 44.7955 69.7838 44.7547 70.4402 44.9023C71.0965 45.0468 71.7694 45.3961 72.3468 45.9059C73.5192 46.94 73.9825 48.342 74.1373 49.3064C74.2163 49.7976 74.2338 50.1996 74.2302 50.4762C74.2261 50.7543 74.2044 50.9065 74.1879 50.906Z" fill="#455A64"/>
<path d="M121.711 111.067L101.87 103.202C101.87 103.202 91.7061 89.8728 91.9182 89.6142L84.784 97.428L95.1535 111.465L119.182 117.09L130.562 117.182C129.682 112.805 121.711 111.067 121.711 111.067Z" fill="#FFBE9D"/>
<path d="M78.4668 73.0439L75.7655 71.997L64.0936 73.4768V75.5393L63.7593 75.5801C63.7593 75.5801 60.1338 76.239 56.609 78.3551C52.3412 80.9176 50.1229 85.8598 50.9134 90.7752C51.3882 93.7268 52.3082 97.3145 54.0806 99.3878C57.4702 103.353 60.5663 98.4523 60.5663 98.4523C60.5663 98.4523 62.6942 103.305 62.5719 105.6C62.4698 107.523 61.6194 111.528 61.3459 112.779C61.3 112.99 61.4383 113.193 61.6504 113.232L86.2734 117.784L86.3936 111.766L85.6103 87.0126L84.5236 77.3984C84.5236 77.3995 84.5582 72.8066 78.4668 73.0439Z" fill="#CBF5B5"/>
<path d="M84.1457 75.8004L93.5338 89.365L85.9754 98.572L84.1457 75.8004Z" fill="#CBF5B5"/>
<path d="M86.1581 104.346C86.1395 104.345 86.1271 104.033 86.1209 103.47C86.1132 102.861 86.1034 102.058 86.091 101.086C86.0425 99.0761 85.929 96.2964 85.5285 93.2551C85.1395 90.2118 84.5481 87.493 84.0956 85.5332C83.8732 84.5868 83.6895 83.8046 83.5502 83.2122C83.4217 82.6637 83.3593 82.3582 83.3768 82.3536C83.3949 82.349 83.4914 82.6451 83.6513 83.1859C83.8118 83.7262 84.0301 84.512 84.2803 85.4883C84.7809 87.4398 85.4047 90.1627 85.7953 93.2211C86.1978 96.2763 86.2814 99.0699 86.2814 101.085C86.2716 102.093 86.2571 102.909 86.2257 103.472C86.1999 104.035 86.1766 104.346 86.1581 104.346Z" fill="#263238"/>
<path d="M63.0567 83.7205C63.0552 83.7638 62.3442 83.7551 61.2012 83.8159C60.0583 83.8758 58.4829 84.0327 56.7739 84.3846C55.0649 84.7401 53.5567 85.2226 52.4844 85.6214C51.4111 86.0193 50.762 86.3098 50.7434 86.2706C50.7352 86.254 50.8895 86.1637 51.1753 86.0151C51.4602 85.8639 51.8833 85.6673 52.4148 85.4444C53.4772 84.9971 54.9927 84.4806 56.7192 84.1214C58.4458 83.7654 60.0418 83.6374 61.1945 83.6261C61.7709 83.6193 62.2373 83.6317 62.5588 83.6575C62.8803 83.6808 63.0573 83.7024 63.0567 83.7205Z" fill="#FAFAFA"/>
<path d="M84.8036 89.9311C84.8092 89.9656 84.3639 90.0735 83.6333 90.1854C82.9026 90.2974 81.8856 90.4058 80.7571 90.445C79.6286 90.4832 78.6059 90.445 77.8696 90.3831C77.1327 90.3217 76.6812 90.2443 76.6843 90.2092C76.6874 90.1705 77.1441 90.1803 77.8788 90.1932C78.6136 90.2066 79.6281 90.2143 80.7478 90.1767C81.867 90.138 82.8784 90.0606 83.6106 89.9971C84.3433 89.9336 84.7979 89.8924 84.8036 89.9311Z" fill="#FAFAFA"/>
<path d="M89.1137 83.7917C89.1617 83.8417 88.3304 84.672 87.0998 85.4212C85.8722 86.1761 84.7546 86.5378 84.7318 86.4723C84.7019 86.3985 85.7556 85.9326 86.9594 85.1916C88.1663 84.4573 89.0616 83.7318 89.1137 83.7917Z" fill="#FAFAFA"/>
<path d="M85.319 77.5022C85.3655 77.5481 84.2582 78.5435 82.5848 79.2452C80.916 79.9588 79.431 80.061 79.4299 79.996C79.416 79.9134 80.8515 79.6952 82.48 78.9975C84.1137 78.3138 85.2695 77.4346 85.319 77.5022Z" fill="#FAFAFA"/>
<path d="M85.8314 100.432C85.8387 100.449 85.6648 100.539 85.3438 100.689C85.0239 100.84 84.5492 101.035 83.9547 101.253C82.7664 101.69 81.0755 102.178 79.1616 102.474C77.2462 102.766 75.4867 102.808 74.222 102.748C73.5893 102.719 73.0785 102.676 72.7276 102.627C72.3767 102.581 72.1838 102.547 72.1858 102.529C72.19 102.485 72.9686 102.548 74.2271 102.558C75.4846 102.569 77.2246 102.498 79.1214 102.209C81.0166 101.916 82.6978 101.462 83.8939 101.074C85.0905 100.686 85.8144 100.391 85.8314 100.432Z" fill="#FAFAFA"/>
<path d="M86.0229 107.428C86.0265 107.436 85.9506 107.479 85.8025 107.553C85.625 107.637 85.4094 107.74 85.1488 107.863C84.5812 108.132 83.7406 108.482 82.688 108.875C81.6364 109.273 80.3613 109.685 78.9274 110.079C77.4898 110.459 75.8917 110.813 74.1962 111.081C72.4985 111.339 70.8674 111.486 69.3824 111.559C67.8963 111.618 66.5563 111.613 65.4334 111.552C64.3111 111.496 63.4045 111.417 62.7817 111.333C62.4964 111.294 62.26 111.261 62.065 111.235C61.9014 111.21 61.8163 111.192 61.8173 111.183C61.8184 111.174 61.9056 111.173 62.0707 111.181C62.2668 111.194 62.5041 111.21 62.7915 111.228C63.4159 111.281 64.3215 111.33 65.4402 111.362C66.5588 111.398 67.8922 111.384 69.3695 111.312C70.8463 111.225 72.466 111.072 74.1544 110.815C75.8401 110.548 77.4299 110.203 78.8634 109.838C80.2927 109.46 81.5677 109.069 82.623 108.696C83.6792 108.327 84.528 108.005 85.107 107.766C85.3748 107.661 85.5967 107.574 85.7793 107.503C85.9357 107.446 86.0188 107.42 86.0229 107.428Z" fill="#FAFAFA"/>
<path d="M40.7475 217.121L37.9585 229.728L32.8775 239.064C32.5111 239.737 32.7913 240.579 33.4874 240.899C33.8775 241.078 34.3259 241.059 34.6974 240.844C37.0612 239.478 45.7326 234.411 45.8848 233.477C46.0613 232.395 49.7094 220.373 49.7094 220.373L40.7475 217.121Z" fill="#71DEA4"/>
<g opacity="0.6">
<path d="M33.4874 240.899L46.0927 232.63L45.9622 233.162C45.8497 233.621 45.5793 234.027 45.1959 234.303C44.1701 235.044 41.2929 237.026 34.7351 240.854C34.3537 241.077 33.8837 241.094 33.4874 240.899Z" fill="white"/>
</g>
<g opacity="0.6">
<path d="M44.5112 227.954C44.1438 228.094 43.9245 228.544 44.0494 228.917C44.1742 229.29 44.6299 229.517 44.9998 229.383C45.3698 229.25 45.6495 228.718 45.4839 228.361C45.3182 228.004 44.7682 227.767 44.4415 227.986" fill="white"/>
</g>
<path d="M37.6979 236.123C37.6185 236.14 37.4967 235.414 36.8378 234.878C36.1948 234.322 35.4585 234.328 35.4616 234.247C35.4585 234.214 35.6406 234.156 35.9446 234.186C36.2459 234.214 36.6597 234.36 37.0199 234.66C37.3785 234.962 37.5937 235.345 37.6742 235.637C37.7573 235.93 37.7315 236.12 37.6979 236.123Z" fill="#263238"/>
<path d="M36.3924 237.583C36.3197 237.623 36.0168 237.116 35.4141 236.771C34.8187 236.413 34.2294 236.396 34.2283 236.313C34.2077 236.24 34.8764 236.122 35.5576 236.527C36.2428 236.924 36.4662 237.565 36.3924 237.583Z" fill="#263238"/>
<path d="M39.8883 234.378C39.8151 234.423 39.3538 233.642 38.4626 233.024C37.5813 232.391 36.6907 232.218 36.7088 232.133C36.7046 232.062 37.6794 232.116 38.6262 232.792C39.5798 233.458 39.9575 234.358 39.8883 234.378Z" fill="#263238"/>
<path d="M41.0566 230.617C41.0045 230.684 40.3827 230.224 39.4895 229.971C38.5994 229.705 37.828 229.758 37.8202 229.674C37.8006 229.605 38.6112 229.415 39.5684 229.699C40.5282 229.973 41.1108 230.568 41.0566 230.617Z" fill="#263238"/>
<path d="M41.9689 226.937C41.9121 227 41.3182 226.411 40.3553 226.221C39.3966 226.01 38.6169 226.311 38.5901 226.231C38.5762 226.199 38.7516 226.076 39.0818 225.98C39.4095 225.883 39.8961 225.836 40.4136 225.944C40.9307 226.052 41.3579 226.29 41.6195 226.51C41.8832 226.73 41.9941 226.914 41.9689 226.937Z" fill="#263238"/>
<path d="M40.5493 225.526C40.5333 225.522 40.5462 225.346 40.6484 225.047C40.7506 224.751 40.9487 224.325 41.3301 223.898C41.5225 223.698 41.7372 223.433 42.1278 223.354C42.3223 223.313 42.5736 223.409 42.682 223.612C42.7898 223.809 42.7857 224.027 42.7413 224.226C42.5328 225.019 41.6608 225.622 40.7372 225.516C39.814 225.394 39.1257 224.681 38.9384 223.907C38.9038 223.71 38.9038 223.479 39.0529 223.29C39.201 223.1 39.4766 223.077 39.6489 223.152C40.0075 223.3 40.1902 223.571 40.3698 223.785C40.7165 224.238 40.8945 224.669 40.9864 224.969C41.0788 225.271 41.0891 225.446 41.0726 225.449C41.0204 225.471 40.9069 224.756 40.2134 223.91C40.0349 223.711 39.8337 223.465 39.5715 223.374C39.4441 223.329 39.3187 223.354 39.2464 223.448C39.1737 223.537 39.1613 223.701 39.1948 223.857C39.3579 224.494 39.9885 225.144 40.7707 225.235C41.5478 225.331 42.3141 224.801 42.4874 224.164C42.5272 224.01 42.5241 223.845 42.4642 223.733C42.4054 223.623 42.2877 223.568 42.1608 223.586C41.8925 223.625 41.6644 223.848 41.4766 224.034C40.7227 224.825 40.602 225.551 40.5493 225.526Z" fill="#263238"/>
<g opacity="0.3">
<path d="M40.4219 218.489L39.8187 221.381L48.9483 222.895L49.7094 220.373L40.7475 217.121L40.4219 218.489Z" fill="black"/>
</g>
<path d="M81.5399 221.787L80.786 231.861C80.786 231.861 90.7732 236.011 90.815 237.886L71.2292 237.126L71.7591 221.381L81.5399 221.787Z" fill="#71DEA4"/>
<g opacity="0.6">
<path d="M74.7627 230.777C74.3799 230.866 74.1012 231.283 74.1745 231.669C74.2477 232.055 74.6683 232.342 75.0527 232.26C75.4371 232.178 75.787 231.689 75.6709 231.312C75.5548 230.937 75.0424 230.627 74.6889 230.799" fill="white"/>
</g>
<g opacity="0.6">
<path d="M71.2292 237.126L71.3447 235.541L90.0802 236.862C90.0802 236.862 90.9373 237.275 90.815 237.886L71.2292 237.126Z" fill="white"/>
</g>
<path d="M81.1075 231.773C81.1007 231.869 80.6209 231.893 80.1384 232.183C79.6482 232.46 79.3897 232.865 79.303 232.823C79.2158 232.801 79.3804 232.235 79.9707 231.895C80.5579 231.55 81.1317 231.687 81.1075 231.773Z" fill="#263238"/>
<path d="M83.1286 232.703C83.1472 232.796 82.7261 232.943 82.3861 233.335C82.0342 233.717 81.9351 234.15 81.8402 234.143C81.7499 234.154 81.7055 233.592 82.1379 233.112C82.5662 232.63 83.1302 232.612 83.1286 232.703Z" fill="#263238"/>
<path d="M84.2004 235.207C84.1126 235.224 83.9981 234.741 84.2638 234.226C84.526 233.71 84.9852 233.521 85.0223 233.602C85.0734 233.682 84.7721 233.952 84.56 234.378C84.3387 234.799 84.2953 235.201 84.2004 235.207Z" fill="#263238"/>
<path d="M81.0244 229.458C80.981 229.544 80.5471 229.395 80.0053 229.411C79.463 229.416 79.0352 229.581 78.9888 229.497C78.9361 229.426 79.3603 229.088 79.9991 229.078C80.6374 229.063 81.0744 229.385 81.0244 229.458Z" fill="#263238"/>
<g opacity="0.3">
<path d="M81.3882 223.781L81.2561 225.577L71.6332 225.116L71.6982 223.04L81.3882 223.781Z" fill="black"/>
</g>
<path d="M81.1389 227.423C81.1384 227.463 80.7581 227.508 80.158 227.381C79.8593 227.317 79.5094 227.205 79.1441 227.026C78.9619 226.936 78.7757 226.829 78.5925 226.705C78.5042 226.643 78.3995 226.58 78.3051 226.463C78.2029 226.359 78.1523 226.103 78.2808 225.952C78.3871 225.806 78.5667 225.747 78.7086 225.75C78.8531 225.751 78.9692 225.785 79.0744 225.815C79.2906 225.876 79.4924 225.957 79.6761 226.048C80.044 226.232 80.3397 226.46 80.5574 226.676C80.9955 227.115 81.1369 227.478 81.1033 227.495C81.059 227.525 80.8495 227.217 80.4005 226.852C80.1766 226.67 79.8892 226.48 79.545 226.325C79.3727 226.248 79.1864 226.181 78.9888 226.129C78.7834 226.067 78.6069 226.059 78.5502 226.149C78.5295 226.183 78.5264 226.197 78.5672 226.26C78.61 226.318 78.6921 226.375 78.7782 226.437C78.947 226.557 79.1178 226.661 79.2849 226.753C79.6198 226.936 79.9423 227.064 80.2189 227.154C80.7746 227.331 81.1425 227.371 81.1389 227.423Z" fill="#263238"/>
<path d="M81.0089 227.555C80.9743 227.569 80.7979 227.219 80.787 226.598C80.7824 226.29 80.8288 225.919 80.9625 225.529C81.0301 225.335 81.1198 225.136 81.2354 224.943C81.3577 224.755 81.5079 224.501 81.8804 224.472C82.0744 224.473 82.2298 224.63 82.2793 224.762C82.3391 224.897 82.3474 225.011 82.366 225.125C82.3933 225.355 82.3799 225.579 82.3412 225.786C82.2633 226.2 82.0791 226.541 81.883 226.783C81.4805 227.275 81.077 227.374 81.0703 227.341C81.0404 227.292 81.3809 227.12 81.6926 226.644C81.8464 226.409 81.9867 226.097 82.0388 225.734C82.0652 225.553 82.0698 225.361 82.043 225.166C82.0203 224.957 81.949 224.786 81.8701 224.804C81.7731 224.799 81.6013 224.949 81.5146 225.112C81.4073 225.284 81.32 225.461 81.2509 225.634C81.1142 225.984 81.0476 226.32 81.0228 226.606C80.9733 227.181 81.0615 227.543 81.0089 227.555Z" fill="#263238"/>
<path d="M61.2611 113.161C61.2611 113.161 58.1511 113.297 56.1021 123.886C54.0531 134.476 38.3027 220.27 38.3027 220.27L49.7094 220.373L71.2292 138.806L69.7993 222.895L81.3882 223.782C81.3882 223.782 90.0848 130.754 90.1664 125.342C90.2685 118.593 86.3928 111.767 86.3928 111.767L61.2611 113.161Z" fill="#263238"/>
<path d="M76.9397 112.254C77.0125 112.269 75.8288 118.319 74.2963 125.765C72.7632 133.213 71.4619 139.237 71.3891 139.222C71.3164 139.207 72.5001 133.159 74.0331 125.711C75.5651 118.265 76.867 112.239 76.9397 112.254Z" fill="#455A64"/>
<path d="M78.7184 113.765C78.6988 113.739 79.0275 113.641 79.3814 113.958C79.544 114.11 79.7045 114.363 79.6926 114.687C79.6864 115.015 79.4382 115.335 79.1085 115.47C78.7813 115.611 78.3794 115.566 78.1405 115.341C77.9 115.124 77.8309 114.832 77.8355 114.609C77.8561 114.135 78.1554 113.968 78.1606 114C78.1962 114.027 77.9924 114.221 78.0254 114.604C78.0429 114.787 78.1224 115.009 78.3009 115.153C78.4733 115.299 78.7535 115.328 79.0048 115.222C79.2555 115.116 79.431 114.896 79.4459 114.67C79.4676 114.443 79.3644 114.23 79.2457 114.09C78.9939 113.799 78.7127 113.809 78.7184 113.765Z" fill="#455A64"/>
<path d="M78.224 117.959C78.2173 117.926 78.545 117.969 78.724 118.388C78.8035 118.586 78.8391 118.872 78.6926 119.148C78.5486 119.429 78.1952 119.596 77.8546 119.566C77.5135 119.543 77.19 119.323 77.0914 119.023C76.9887 118.727 77.0687 118.45 77.1776 118.267C77.4196 117.881 77.7498 117.889 77.738 117.92C77.7545 117.961 77.4949 118.025 77.3453 118.356C77.2756 118.514 77.239 118.735 77.3221 118.933C77.3979 119.131 77.6193 119.277 77.8752 119.298C78.1312 119.317 78.3721 119.207 78.4779 119.023C78.5904 118.84 78.5889 118.617 78.5445 118.449C78.448 118.1 78.2013 117.996 78.224 117.959Z" fill="#455A64"/>
<path d="M67.2926 113.871C67.3081 113.877 67.2673 114.067 67.1569 114.402C67.047 114.737 66.8545 115.211 66.5557 115.768C65.9675 116.879 64.8705 118.312 63.2456 119.382C61.6207 120.453 59.871 120.896 58.6186 120.999C57.9891 121.054 57.4772 121.044 57.1264 121.013C56.7755 120.982 56.584 120.945 56.5856 120.929C56.5882 120.878 57.3648 120.966 58.598 120.811C59.8235 120.662 61.517 120.2 63.098 119.158C64.6785 118.117 65.7704 116.743 66.3906 115.675C67.0196 114.603 67.2451 113.854 67.2926 113.871Z" fill="#455A64"/>
<path d="M89.4883 121.397C89.4775 121.412 89.3562 121.338 89.1457 121.191C88.9321 121.048 88.6462 120.806 88.3186 120.483C87.6617 119.839 86.8867 118.791 86.3748 117.471C85.8681 116.149 85.7396 114.852 85.7943 113.933C85.8196 113.474 85.8696 113.103 85.9326 112.853C85.9898 112.603 86.0301 112.467 86.0482 112.47C86.0967 112.479 85.9862 113.035 85.9847 113.938C85.9795 114.838 86.1338 116.09 86.6256 117.375C87.123 118.657 87.848 119.688 88.4563 120.352C89.0631 121.02 89.5177 121.359 89.4883 121.397Z" fill="#455A64"/>
<path d="M56.7249 92.7541L61.7931 93.0343C62.1135 94.6772 63.226 97.1896 63.226 97.1896C67.3055 90.1086 70.4686 80.6214 71.2534 76.8081C71.1389 76.4273 71.0037 76.0058 70.8344 75.5352C70.6394 74.9918 70.8066 73.9624 70.8989 73.3912C71.0357 72.5424 71.2735 71.4 71.3447 70.8716C71.562 69.2606 71.8215 69.0073 72.3834 69.1894C73.1482 69.4371 72.0702 73.7142 72.6967 73.8071C73.0336 73.8571 73.4449 72.3917 73.5646 71.1894C73.6843 69.9871 74.2276 66.289 74.625 66.0423C75.2075 65.6811 75.7153 66.2523 75.5682 67.45C75.4196 68.6621 75.2318 72.2751 75.867 72.3241C76.4929 72.3726 77.0187 66.241 77.0187 66.241C77.0187 66.241 76.9196 64.9066 77.6554 64.9386C78.9821 64.9964 77.9454 71.4603 77.8319 72.0728C77.7524 72.499 78.4418 72.577 78.5022 72.1146C78.5646 71.6389 78.885 65.983 80.2354 66.0284C81.2721 66.0635 79.432 71.3551 80.0146 72.5821C80.5966 73.8086 81.0012 68.4159 81.9914 68.4902C82.3598 68.5181 82.6322 68.5903 81.9553 71.642C81.5915 73.2823 80.5223 76.2978 79.5878 78.7947C78.0192 87.2566 71.1332 114.328 60.3385 109.372C54.2982 106.599 51.4793 92.8707 51.4793 92.8707L56.7249 92.7541Z" fill="#FFBE9D"/>
<path d="M79.5873 78.7984C79.5822 78.7963 79.5997 78.7339 79.6389 78.6131C79.6854 78.4764 79.7447 78.3009 79.8195 78.0806C79.9883 77.593 80.2246 76.9088 80.5259 76.0378C80.8268 75.1492 81.1962 74.0615 81.5636 72.7833C81.7519 72.1451 81.9042 71.4541 82.0466 70.7126C82.1152 70.3427 82.1859 69.9613 82.2287 69.5697C82.2468 69.3752 82.2674 69.175 82.2561 68.9825C82.2416 68.7813 82.2107 68.6172 82.0523 68.6141C81.8877 68.5697 81.7777 68.7054 81.6647 68.8762C81.5615 69.048 81.4805 69.2457 81.4088 69.4484C81.2643 69.855 81.1508 70.2875 81.0388 70.7302C80.9263 71.1734 80.8226 71.6285 80.6879 72.0924C80.6064 72.3267 80.5708 72.5527 80.3784 72.8045C80.3422 72.8349 80.3097 72.8757 80.237 72.8896C80.1575 72.9103 80.0987 72.8793 80.0429 72.8458C79.9686 72.7797 79.933 72.7132 79.9005 72.6513C79.8427 72.5207 79.8071 72.3871 79.7917 72.2575C79.6993 71.2219 79.9356 70.2209 80.0971 69.1817C80.1859 68.6636 80.2798 68.1394 80.3479 67.6084C80.3809 67.3432 80.4088 67.0759 80.4119 66.8122C80.4217 66.5676 80.3789 66.2369 80.2715 66.1904C80.1394 66.1404 79.9005 66.29 79.7741 66.5088C79.6317 66.724 79.5264 66.9794 79.4361 67.2405C79.2571 67.7653 79.1405 68.3251 79.0393 68.8912C78.9413 69.4593 78.8644 70.0382 78.8009 70.6249C78.772 70.919 78.7431 71.2142 78.7142 71.5109L78.6755 71.9588C78.6642 72.08 78.6647 72.3334 78.4702 72.4789C78.2911 72.6131 78.0512 72.6275 77.8598 72.5026C77.7638 72.4407 77.689 72.3257 77.6745 72.2096C77.6621 72.1507 77.673 72.096 77.6771 72.0439L77.6962 71.9335C77.7421 71.6342 77.788 71.3334 77.8345 71.0315C77.9196 70.4257 77.9934 69.8133 78.0522 69.1956C78.11 68.578 78.1528 67.9541 78.1626 67.3282C78.1637 66.709 78.159 66.0599 77.981 65.4923C77.9227 65.3204 77.8272 65.1636 77.7209 65.1187C77.6116 65.0795 77.4537 65.1192 77.3727 65.2296C77.1941 65.4809 77.1642 65.8947 77.1781 66.2322L77.1786 66.2487L77.1776 66.258C77.0672 67.4706 76.9356 68.6626 76.7607 69.8339C76.6704 70.4196 76.5749 70.999 76.4279 71.5723C76.3912 71.7157 76.3474 71.8587 76.2968 72.0021C76.2282 72.1451 76.2096 72.2906 76.0047 72.4474C75.8272 72.5321 75.6957 72.4361 75.6255 72.3644C75.5501 72.2854 75.5197 72.2075 75.4851 72.1311C75.4253 71.9794 75.3959 71.8324 75.369 71.6863C75.2049 70.5233 75.273 69.4041 75.3386 68.3065C75.3603 67.7549 75.4949 67.209 75.4222 66.7245C75.3871 66.4845 75.2937 66.2441 75.1342 66.1368C75.0558 66.0852 74.966 66.0733 74.8695 66.096C74.8215 66.111 74.773 66.128 74.7256 66.1569C74.6791 66.1956 74.6884 66.1811 74.6528 66.2461C74.4521 66.6677 74.3546 67.2007 74.2462 67.6827C74.1446 68.1765 74.0579 68.6672 73.9789 69.1523C73.9005 69.6373 73.8308 70.1161 73.7689 70.5878C73.7044 71.0553 73.6724 71.5295 73.5806 71.9903C73.4928 72.4495 73.3865 72.8964 73.2194 73.3251C73.1771 73.432 73.1285 73.5377 73.0702 73.642C72.998 73.739 72.9572 73.8654 72.7596 73.9258C72.6471 73.9567 72.5491 73.8798 72.4985 73.8153C72.4552 73.7488 72.434 73.6853 72.417 73.6244C72.3907 73.5052 72.3793 73.3917 72.3752 73.2808C72.3638 72.4015 72.4944 71.595 72.5382 70.8164C72.5625 70.4299 72.58 70.048 72.5352 69.6956C72.5119 69.53 72.4588 69.3354 72.3638 69.2967C72.2256 69.2415 72.047 69.2126 71.9433 69.2875C71.7152 69.4521 71.6358 69.8298 71.5615 70.1316C71.4887 70.4505 71.4552 70.7673 71.3963 71.0723C71.1817 72.2926 70.9546 73.3406 70.8442 74.1977C70.7936 74.626 70.7735 75.0125 70.8277 75.3345C70.8994 75.6466 71.0042 75.9232 71.064 76.1404C71.1249 76.3458 71.1739 76.5104 71.2121 76.6389C71.2436 76.7519 71.2575 76.8097 71.2524 76.8118C71.2472 76.8133 71.2235 76.7581 71.1822 76.6482C71.1363 76.5223 71.0785 76.3613 71.0052 76.1601C70.9335 75.9402 70.8256 75.6889 70.7374 75.352C70.6703 75.014 70.6827 74.6203 70.7245 74.1853C70.8179 73.3133 71.0264 72.2725 71.2245 71.0496C71.2792 70.7451 71.3086 70.4227 71.3793 70.094C71.4165 69.9294 71.4521 69.7622 71.515 69.594C71.5805 69.4309 71.6507 69.2441 71.838 69.1208C72.0382 68.9964 72.2596 69.0418 72.4469 69.113C72.6889 69.2513 72.6977 69.4835 72.74 69.6657C72.7926 70.0516 72.7761 70.4371 72.7555 70.8303C72.7178 71.6136 72.5955 72.4366 72.6131 73.2699C72.6172 73.3726 72.6296 73.4738 72.6502 73.5656C72.6719 73.6657 72.7235 73.7044 72.7132 73.6853C72.7312 73.6889 72.8102 73.5997 72.8545 73.5186C72.9031 73.4299 72.9469 73.3339 72.9856 73.2338C73.1399 72.8319 73.2421 72.3912 73.3246 71.9443C73.4108 71.4985 73.4397 71.0331 73.5021 70.5547C73.5615 70.0795 73.6291 69.5976 73.7054 69.1094C73.7823 68.6213 73.8669 68.127 73.9676 67.6264C74.0821 67.1233 74.1549 66.627 74.3995 66.1032C74.4144 66.0506 74.5207 65.9329 74.5806 65.9046C74.6456 65.8653 74.7199 65.8364 74.7978 65.8137C74.9552 65.7719 75.1482 65.7952 75.2911 65.8911C75.5749 66.0913 75.6647 66.4025 75.7122 66.6791C75.755 66.9624 75.7405 67.2492 75.7085 67.5222C75.6781 67.7869 75.6559 68.0563 75.6368 68.3272C75.5739 69.4067 75.5145 70.5377 75.6729 71.6322C75.6967 71.7658 75.7261 71.9 75.772 72.0145C75.7952 72.0677 75.8226 72.1249 75.8489 72.1487C75.8618 72.1667 75.8706 72.1657 75.8747 72.1688L75.8768 72.1693L75.8773 72.1709C75.8685 72.2916 75.8763 72.1961 75.8737 72.2199C75.8721 72.1972 75.867 72.2018 75.8525 72.1755C75.8788 72.1538 75.9619 72.0114 76.0016 71.8922C76.047 71.7632 76.0878 71.6296 76.1229 71.4918C76.2632 70.9412 76.3582 70.3649 76.4464 69.7859C76.6177 68.6249 76.7488 67.4345 76.8577 66.2296V66.2549C76.852 65.8581 76.8453 65.4422 77.1188 65.031C77.2787 64.8282 77.5677 64.7183 77.8386 64.8204C78.1069 64.9458 78.206 65.1863 78.2818 65.3849C78.4862 66.0449 78.4795 66.6925 78.481 67.3313C78.4712 67.9701 78.4268 68.6007 78.368 69.224C78.3082 69.8473 78.2333 70.4644 78.1467 71.0744C78.0997 71.3793 78.0527 71.6832 78.0058 71.9856C77.9676 72.1776 77.9769 72.1838 78.0342 72.2405C78.0961 72.2875 78.2158 72.2803 78.2741 72.2312C78.3396 72.1874 78.3474 72.0971 78.3618 71.9294L78.4015 71.4815C78.4315 71.1827 78.4609 70.8855 78.4908 70.5898C78.5558 69.9985 78.6353 69.4134 78.7364 68.837C78.8412 68.2611 78.9609 67.692 79.1503 67.1409C79.2468 66.8664 79.3577 66.5939 79.5254 66.3406C79.6111 66.2157 79.7106 66.0903 79.8567 65.9985C80.0058 65.9128 80.1699 65.8349 80.3933 65.9211C80.6054 66.0366 80.6415 66.2327 80.675 66.3757C80.6972 66.5263 80.707 66.6729 80.7024 66.8143C80.6977 67.0986 80.6673 67.3731 80.6327 67.644C80.561 68.1853 80.4645 68.7111 80.3732 69.2286C80.205 70.2565 79.9728 71.2797 80.0533 72.2188C80.0657 72.3344 80.0966 72.4402 80.1353 72.5336C80.159 72.5806 80.1854 72.6193 80.2019 72.6363C80.2045 72.6306 80.1978 72.627 80.1895 72.659C80.1849 72.7008 80.191 72.6497 80.1843 72.6564C80.1647 72.6244 80.1792 72.6337 80.1874 72.6224C80.2963 72.4887 80.3727 72.2297 80.4403 72.0166C80.5744 71.5666 80.6818 71.111 80.7979 70.6667C80.914 70.2224 81.0311 69.7859 81.1843 69.3654C81.2612 69.1554 81.3464 68.949 81.4661 68.7529C81.5311 68.6569 81.5951 68.5589 81.7014 68.4794C81.7478 68.4371 81.8175 68.4072 81.8856 68.3881C81.9661 68.3757 82.0311 68.3772 82.0837 68.3875C82.205 68.3927 82.3696 68.499 82.4098 68.6265C82.4599 68.7467 82.4707 68.8602 82.4759 68.968C82.4862 69.1858 82.4625 69.3891 82.4418 69.5914C82.3933 69.9933 82.3185 70.3767 82.2458 70.7493C82.0956 71.4913 81.9325 72.192 81.7349 72.8308C81.3495 74.111 80.9625 75.1936 80.6425 76.077C80.3211 76.9599 80.0605 77.6405 79.8794 78.1007C79.7922 78.3169 79.723 78.4888 79.6689 78.6224C79.6198 78.7416 79.5925 78.8004 79.5873 78.7984Z" fill="#EB996E"/>
<path d="M51.4215 93.3403C52.4019 96.7995 54.3173 102.144 56.3761 107.779C56.6738 108.593 57.8064 108.646 58.1775 107.863L63.226 97.1896C63.226 97.1896 62.0103 88.4212 62.1135 88.7308C62.2167 89.0404 51.698 89.865 51.698 89.865L51.4215 93.3403Z" fill="#CBF5B5"/>
<path d="M62.791 91.6199C62.8024 91.6628 62.1641 91.848 61.1646 92.2288C60.1656 92.6086 58.8137 93.2123 57.4194 94.0555C56.0268 94.9027 54.8663 95.8222 54.068 96.5328C53.2682 97.2428 52.8085 97.7232 52.776 97.6933C52.762 97.6809 52.8632 97.5483 53.0587 97.3186C53.2522 97.087 53.5515 96.7691 53.939 96.3935C54.7115 95.6406 55.8689 94.6839 57.2801 93.8258C58.6929 92.9713 60.0758 92.3872 61.1006 92.0503C61.613 91.8805 62.033 91.7618 62.3282 91.6973C62.6223 91.6308 62.7864 91.6019 62.791 91.6199Z" fill="#FAFAFA"/>
<path d="M64.7921 94.2815C64.7657 94.3005 64.4221 93.8955 63.9499 93.1793C63.4778 92.4641 62.8932 91.4269 62.3906 90.2159C61.8896 89.0038 61.5686 87.8573 61.3963 87.0177C61.2229 86.1777 61.179 85.6483 61.2115 85.6431C61.2523 85.6364 61.3622 86.1529 61.581 86.9733C61.7993 87.7943 62.1439 88.9166 62.6388 90.1127C63.1357 91.3077 63.6852 92.3449 64.112 93.0792C64.5382 93.815 64.8256 94.2577 64.7921 94.2815Z" fill="#263238"/>
<path d="M68.1595 47.0097C66.3937 49.8637 66.0186 53.5562 67.1734 56.7146C67.692 58.1326 68.5129 59.533 68.3628 61.0371C68.209 62.5779 67.0403 64.0335 67.4531 65.5248C67.6971 66.4061 68.4536 67.0599 68.7436 67.9268C69.0841 68.9443 68.7291 70.0454 68.5671 71.1074C68.1548 73.8097 69.0181 76.5269 69.2322 79.253C69.4464 81.979 68.7106 85.1694 66.2797 86.3583C65.5408 86.72 64.5748 86.8237 63.9603 86.2726C63.1801 85.5734 63.3973 84.3165 63.6109 83.2834C65.7472 72.9541 59.148 62.8916 60.6548 52.4493C60.8963 50.7754 61.8313 47.9359 63.0361 46.7646C64.241 45.5932 67.5738 45.7357 68.7142 46.9715" fill="#263238"/>
<path d="M57.9953 76.9444C57.9741 76.9268 58.3054 76.5723 58.7698 75.8406C59.2322 75.1136 59.8142 73.9779 60.1176 72.4619C60.2652 71.7044 60.3302 70.8607 60.2765 69.9521C60.2368 69.0434 60.1088 68.0661 60.1702 67.0201C60.1919 66.4969 60.3039 65.9649 60.4664 65.4391C60.6496 64.9205 60.887 64.4118 61.1749 63.9236C61.7523 62.9474 62.4835 62.0382 63.1527 61.0665C63.822 60.099 64.3772 59.0737 64.5568 57.9901C64.7374 56.9076 64.5423 55.8348 64.3767 54.824C64.1981 53.8126 64.0748 52.8172 64.1491 51.8915C64.2079 50.9669 64.3932 50.118 64.644 49.3735C65.1507 47.8796 65.8999 46.8213 66.468 46.1624C66.7539 45.8311 66.9959 45.5917 67.1703 45.4415C67.3426 45.2893 67.436 45.213 67.4422 45.2197C67.4618 45.2403 67.0944 45.5561 66.549 46.2295C66.0114 46.9018 65.2993 47.9601 64.8251 49.4333C64.5903 50.1676 64.42 51.0009 64.372 51.9044C64.3096 52.81 64.436 53.7703 64.6213 54.7827C64.7921 55.7904 65.0026 56.8895 64.8168 58.033C64.6305 59.1759 64.0516 60.2394 63.3746 61.2188C62.6966 62.2022 61.9685 63.1052 61.4014 64.0578C61.1187 64.5335 60.888 65.0243 60.7095 65.5212C60.5521 66.0237 60.4411 66.5294 60.4174 67.0367C60.3508 68.049 60.4685 69.0238 60.4995 69.9428C60.5443 70.8633 60.4664 71.7317 60.3039 72.5001C59.97 74.0419 59.3514 75.1812 58.857 75.8984C58.6093 76.2596 58.3937 76.5223 58.2414 76.6946C58.0872 76.8644 58.0025 76.9506 57.9953 76.9444Z" fill="#455A64"/>
<path d="M53.1016 77.7168C53.0933 77.7122 53.149 77.5935 53.2615 77.3706C53.3879 77.126 53.5546 76.804 53.7631 76.4021C54.195 75.5605 54.8415 74.3499 55.4772 72.7864C56.1006 71.2286 56.7182 69.2771 56.7373 67.0521C56.7409 66.4985 56.7007 65.9314 56.6114 65.3591C56.5226 64.7859 56.389 64.2007 56.3028 63.5903C56.2203 62.9819 56.1805 62.3333 56.342 61.6924C56.502 61.05 56.9055 60.4783 57.3921 60.0361C58.3648 59.1517 59.5381 58.5758 60.1444 57.5407C60.7652 56.5232 60.9025 55.3296 61.0593 54.2316C61.1935 53.1217 61.4066 52.053 61.7698 51.1139C62.1207 50.1702 62.5898 49.3502 63.0789 48.6521C64.064 47.2496 65.1595 46.3667 65.9474 45.842C66.3442 45.5798 66.6657 45.3966 66.8917 45.2893C67.1156 45.1784 67.2353 45.1242 67.2395 45.1325C67.2534 45.1583 66.7771 45.3838 66.0067 45.9276C65.2446 46.4741 64.1837 47.3673 63.2353 48.7599C62.7642 49.4534 62.3137 50.2636 61.9788 51.1918C61.6316 52.1175 61.4334 53.1511 61.3049 54.2641C61.1527 55.3627 61.0268 56.5882 60.3694 57.678C59.7126 58.7925 58.4979 59.3849 57.5753 60.2327C57.1104 60.6579 56.7492 61.1734 56.6011 61.759C56.452 62.3452 56.4845 62.9597 56.5639 63.5537C56.6465 64.1502 56.777 64.7343 56.8653 65.3194C56.954 65.9061 56.9922 66.4876 56.985 67.0532C56.9514 69.3261 56.3033 71.2962 55.6532 72.8577C54.9896 74.4242 54.3157 75.6234 53.8549 76.4511C53.6284 76.8432 53.4468 77.1575 53.309 77.3959C53.181 77.611 53.1098 77.7215 53.1016 77.7168Z" fill="#455A64"/>
<path d="M223.827 223.521C223.822 223.519 223.853 223.445 223.917 223.304C223.989 223.149 224.086 222.943 224.21 222.68C224.458 222.13 224.781 221.295 225.069 220.185C225.638 217.966 225.836 214.575 224.996 210.548C224.606 208.532 223.977 206.369 223.208 204.075C222.452 201.778 221.573 199.341 220.855 196.706C220.146 194.077 219.585 191.224 219.693 188.233C219.802 185.236 220.689 182.244 221.665 179.266C222.639 176.284 223.646 173.368 223.948 170.436C224.289 167.509 223.663 164.635 222.329 162.28C221.038 159.901 219.413 157.866 218.197 155.758C216.961 153.657 216.189 151.496 215.713 149.487C214.79 145.435 215.113 142.022 215.555 139.772C216.035 137.51 216.569 136.341 216.569 136.341C216.575 136.343 216.554 136.42 216.509 136.569C216.459 136.732 216.391 136.949 216.304 137.227C216.126 137.805 215.894 138.668 215.674 139.795C215.27 142.04 214.985 145.43 215.926 149.437C216.411 151.424 217.187 153.556 218.418 155.629C219.631 157.712 221.263 159.739 222.581 162.146C223.942 164.526 224.597 167.494 224.251 170.467C223.947 173.449 222.932 176.384 221.961 179.363C220.985 182.338 220.108 185.298 219.997 188.245C219.887 191.19 220.433 194.016 221.131 196.632C221.837 199.254 222.706 201.692 223.453 203.996C224.211 206.296 224.833 208.476 225.211 210.507C226.029 214.565 225.795 217.989 225.186 220.216C224.878 221.33 224.534 222.163 224.267 222.708C224.131 222.966 224.025 223.168 223.946 223.32C223.871 223.455 223.832 223.523 223.827 223.521Z" fill="#263238"/>
<path d="M219.848 157.837C219.848 157.837 217.378 149.94 221.808 145.317C221.964 145.155 222.238 145.231 222.278 145.453C222.514 146.756 222.81 150.728 219.848 157.837Z" fill="#71DEA4"/>
<path d="M221.327 147.948C221.369 147.956 221.298 148.512 221.161 149.405C220.999 150.408 220.808 151.586 220.598 152.888C220.391 154.189 220.204 155.367 220.045 156.371C219.91 157.262 219.829 157.816 219.783 157.812C219.743 157.809 219.747 157.247 219.828 156.344C219.909 155.441 220.069 154.2 220.292 152.838C220.515 151.475 220.753 150.248 220.946 149.364C221.139 148.481 221.286 147.94 221.327 147.948Z" fill="#263238"/>
<path d="M222.749 176.462C222.749 176.462 224.259 168.327 230.337 166.311C230.55 166.241 230.756 166.436 230.688 166.651C230.288 167.914 228.691 171.563 222.749 176.462Z" fill="#71DEA4"/>
<path d="M228.681 168.413C228.714 168.439 228.392 168.898 227.853 169.623C227.24 170.434 226.521 171.386 225.727 172.438C224.935 173.492 224.219 174.446 223.609 175.258C223.072 175.983 222.742 176.434 222.704 176.41C222.67 176.388 222.936 175.894 223.43 175.133C223.924 174.374 224.645 173.351 225.48 172.251C226.314 171.151 227.098 170.178 227.682 169.487C228.265 168.795 228.648 168.386 228.681 168.413Z" fill="#263238"/>
<path d="M221.107 196.869C221.107 196.869 220.189 188.647 225.42 184.953C225.604 184.823 225.857 184.951 225.855 185.176C225.838 186.501 225.37 190.457 221.107 196.869Z" fill="#71DEA4"/>
<path d="M224.446 187.444C224.485 187.46 224.31 187.992 224.004 188.843C223.653 189.797 223.242 190.917 222.787 192.154C222.336 193.393 221.927 194.513 221.58 195.467C221.277 196.317 221.092 196.845 221.048 196.832C221.009 196.822 221.121 196.271 221.372 195.4C221.624 194.53 222.017 193.342 222.497 192.047C222.975 190.752 223.442 189.593 223.801 188.762C224.159 187.931 224.406 187.428 224.446 187.444Z" fill="#263238"/>
<path d="M225.684 217.396C225.684 217.396 225.062 209.146 230.421 205.642C230.61 205.519 230.859 205.655 230.848 205.88C230.784 207.204 230.175 211.14 225.684 217.396Z" fill="#71DEA4"/>
<path d="M229.359 208.097C229.398 208.115 229.204 208.64 228.868 209.479C228.483 210.42 228.032 211.524 227.533 212.745C227.037 213.966 226.59 215.071 226.208 216.013C225.874 216.851 225.671 217.371 225.628 217.358C225.59 217.346 225.721 216.799 226.002 215.938C226.286 215.077 226.721 213.904 227.247 212.627C227.772 211.35 228.28 210.209 228.668 209.391C229.055 208.573 229.32 208.08 229.359 208.097Z" fill="#263238"/>
<path d="M216.299 150.899C216.299 150.899 208.965 147.069 208.821 140.667C208.816 140.442 209.064 140.303 209.249 140.431C210.339 141.185 213.359 143.781 216.299 150.899Z" fill="#71DEA4"/>
<path d="M210.344 142.866C210.38 142.843 210.723 143.285 211.258 144.014C211.854 144.837 212.553 145.804 213.326 146.873C214.101 147.938 214.803 148.903 215.401 149.724C215.936 150.45 216.271 150.898 216.236 150.927C216.206 150.954 215.811 150.554 215.228 149.859C214.647 149.164 213.881 148.175 213.074 147.054C212.267 145.934 211.567 144.899 211.078 144.138C210.588 143.376 210.309 142.89 210.344 142.866Z" fill="#263238"/>
<path d="M224.174 167.858C224.174 167.858 216.621 164.48 216.089 158.099C216.07 157.875 216.309 157.721 216.501 157.837C217.635 158.523 220.808 160.932 224.174 167.858Z" fill="#71DEA4"/>
<path d="M217.743 160.202C217.777 160.176 218.146 160.597 218.725 161.291C219.369 162.077 220.126 163 220.962 164.019C221.801 165.036 222.56 165.956 223.206 166.74C223.785 167.432 224.146 167.858 224.113 167.89C224.084 167.918 223.666 167.543 223.043 166.885C222.42 166.226 221.596 165.285 220.723 164.215C219.849 163.146 219.087 162.156 218.552 161.425C218.017 160.696 217.709 160.228 217.743 160.202Z" fill="#263238"/>
<path d="M219.828 186.774C219.828 186.774 214.643 180.328 217.075 174.404C217.16 174.196 217.443 174.168 217.562 174.359C218.258 175.486 219.986 179.075 219.828 186.774Z" fill="#71DEA4"/>
<path d="M217.589 177.029C217.632 177.022 217.769 177.565 217.968 178.446C218.183 179.44 218.437 180.606 218.717 181.894C219.001 183.181 219.257 184.346 219.476 185.338C219.676 186.218 219.803 186.762 219.759 186.775C219.721 186.787 219.519 186.262 219.264 185.393C219.01 184.523 218.704 183.31 218.414 181.96C218.123 180.61 217.896 179.381 217.753 178.488C217.609 177.594 217.547 177.037 217.589 177.029Z" fill="#263238"/>
<path d="M224.965 209.036C224.965 209.036 217.47 205.532 217.045 199.143C217.03 198.919 217.272 198.768 217.462 198.888C218.584 199.592 221.715 202.054 224.965 209.036Z" fill="#71DEA4"/>
<path d="M218.663 201.272C218.698 201.247 219.06 201.674 219.627 202.378C220.258 203.174 220.999 204.11 221.818 205.143C222.639 206.173 223.383 207.106 224.016 207.901C224.583 208.602 224.936 209.035 224.903 209.066C224.874 209.093 224.462 208.711 223.85 208.043C223.239 207.374 222.43 206.419 221.575 205.335C220.719 204.251 219.974 203.248 219.452 202.51C218.93 201.771 218.629 201.298 218.663 201.272Z" fill="#263238"/>
<path d="M239.895 176.506C239.902 176.507 239.905 176.568 239.904 176.688C239.9 176.832 239.896 177.006 239.891 177.217C239.869 177.714 239.839 178.385 239.802 179.223C239.706 180.987 239.571 183.446 239.41 186.387L239.409 186.395L239.407 186.405C238.872 189.399 237.347 192.717 235.299 195.939C233.797 198.312 232.222 200.47 230.864 202.477C229.496 204.478 228.342 206.331 227.538 207.974C226.728 209.614 226.258 211.023 225.982 212.008C225.851 212.502 225.752 212.888 225.694 213.151C225.633 213.414 225.595 213.551 225.584 213.55C225.574 213.548 225.591 213.407 225.633 213.139C225.67 212.871 225.751 212.48 225.865 211.978C226.106 210.978 226.549 209.545 227.34 207.879C228.126 206.21 229.269 204.332 230.626 202.318C231.975 200.297 233.542 198.136 235.036 195.775C237.073 192.569 238.59 189.301 239.145 186.355L239.143 186.372C239.35 183.433 239.523 180.977 239.646 179.215C239.714 178.379 239.768 177.709 239.808 177.213C239.83 177.003 239.847 176.83 239.862 176.687C239.877 176.567 239.887 176.506 239.895 176.506Z" fill="#263238"/>
<path d="M235.432 195.323C235.432 195.323 238.606 187.683 234.613 182.677C234.472 182.501 234.193 182.553 234.133 182.769C233.779 184.046 233.126 187.975 235.432 195.323Z" fill="#71DEA4"/>
<path d="M234.854 185.34C234.896 185.336 234.994 185.888 235.106 186.786C235.218 187.684 235.343 188.928 235.442 190.304C235.542 191.682 235.588 192.932 235.587 193.838C235.585 194.745 235.539 195.304 235.498 195.304C235.453 195.303 235.422 194.745 235.368 193.845C235.301 192.831 235.221 191.641 235.133 190.326C235.041 189.011 234.958 187.82 234.887 186.806C234.831 185.904 234.811 185.345 234.854 185.34Z" fill="#263238"/>
<g opacity="0.3">
<path d="M235.432 195.323C235.432 195.323 238.606 187.683 234.613 182.677C234.472 182.501 234.193 182.553 234.133 182.769C233.779 184.046 233.126 187.975 235.432 195.323Z" fill="black"/>
</g>
<path d="M225.6 213.735C225.6 213.735 228.144 205.862 223.758 201.197C223.604 201.033 223.33 201.107 223.288 201.328C223.039 202.63 222.706 206.599 225.6 213.735Z" fill="#71DEA4"/>
<path d="M224.214 203.833C224.256 203.825 224.398 204.367 224.582 205.253C224.767 206.139 224.993 207.368 225.203 208.732C225.414 210.097 225.561 211.34 225.634 212.243C225.706 213.146 225.705 213.708 225.665 213.711C225.619 213.714 225.544 213.16 225.417 212.267C225.268 211.262 225.092 210.082 224.898 208.779C224.699 207.475 224.52 206.296 224.367 205.291C224.238 204.397 224.172 203.841 224.214 203.833Z" fill="#263238"/>
<g opacity="0.3">
<path d="M225.6 213.735C225.6 213.735 228.144 205.862 223.758 201.197C223.604 201.033 223.33 201.107 223.288 201.328C223.039 202.63 222.706 206.599 225.6 213.735Z" fill="black"/>
</g>
<path d="M239.474 185.985C239.474 185.985 246.252 181.24 245.568 174.873C245.544 174.65 245.281 174.544 245.113 174.694C244.13 175.582 241.47 178.547 239.474 185.985Z" fill="#71DEA4"/>
<g opacity="0.3">
<path d="M239.474 185.985C239.474 185.985 246.252 181.24 245.568 174.873C245.544 174.65 245.281 174.544 245.113 174.694C244.13 175.582 241.47 178.547 239.474 185.985Z" fill="black"/>
</g>
<path d="M244.342 177.251C244.38 177.27 244.166 177.788 243.779 178.606C243.392 179.424 242.831 180.541 242.175 181.756C241.521 182.972 240.888 184.052 240.402 184.816C239.914 185.579 239.574 186.027 239.541 186.005C239.502 185.98 239.776 185.493 240.214 184.704C240.701 183.813 241.272 182.766 241.903 181.609C242.531 180.45 243.1 179.401 243.584 178.507C244.021 177.715 244.304 177.232 244.342 177.251Z" fill="#263238"/>
<path d="M228.333 205.93C228.333 205.93 236.508 204.656 238.698 198.639C238.775 198.428 238.585 198.216 238.369 198.278C237.095 198.641 233.401 200.132 228.333 205.93Z" fill="#71DEA4"/>
<g opacity="0.3">
<path d="M228.333 205.93C228.333 205.93 236.508 204.656 238.698 198.639C238.775 198.428 238.585 198.216 238.369 198.278C237.095 198.641 233.401 200.132 228.333 205.93Z" fill="black"/>
</g>
<path d="M236.55 200.233C236.576 200.267 236.155 200.637 235.448 201.201C234.74 201.765 233.744 202.521 232.621 203.323C231.498 204.125 230.454 204.817 229.681 205.289C228.906 205.76 228.404 206.012 228.384 205.977C228.36 205.938 228.821 205.621 229.561 205.106C230.391 204.52 231.365 203.831 232.441 203.071C233.515 202.307 234.488 201.615 235.316 201.026C236.057 200.508 236.524 200.199 236.55 200.233Z" fill="#263238"/>
<path d="M220.534 220.975L218.149 237.025H233.011L231.084 220.975H220.534Z" fill="#455A64"/>
<path d="M231.678 225.949C231.678 226.034 228.995 226.103 225.686 226.103C222.376 226.103 219.693 226.034 219.693 225.949C219.693 225.863 222.376 225.794 225.686 225.794C228.995 225.794 231.678 225.863 231.678 225.949Z" fill="#263238"/>
<path d="M231.973 227.226C231.973 227.311 229.202 227.381 225.784 227.381C222.365 227.381 219.595 227.311 219.595 227.226C219.595 227.14 222.365 227.071 225.784 227.071C229.202 227.071 231.973 227.14 231.973 227.226Z" fill="#263238"/>
<path d="M174.184 65.2957C174.184 65.2957 174.046 65.2982 173.78 65.2905C173.514 65.2792 173.118 65.2606 172.599 65.2967C171.569 65.354 170.023 65.5485 168.202 66.3106C166.401 67.0717 164.294 68.4159 162.617 70.6626C161.786 71.7813 161.091 73.1265 160.668 74.6513C160.26 76.1781 160.122 77.8711 160.316 79.6152C160.537 81.3526 161.068 83.1508 162.042 84.8015C162.525 85.625 163.098 86.4248 163.798 87.1302C164.474 87.8562 165.273 88.4986 166.172 88.9878C167.07 89.4739 168.098 89.7799 169.15 89.7381C170.194 89.704 171.271 89.3361 172.035 88.5745C172.804 87.8186 173.184 86.7081 173.185 85.6003C173.19 84.4842 172.803 83.3737 172.138 82.4387C170.799 80.5559 168.632 79.2891 166.327 78.6069C164 77.9289 161.445 77.9108 158.998 78.5053C157.779 78.8226 156.588 79.288 155.469 79.9083C154.35 80.5321 153.331 81.3458 152.438 82.2855C152.227 82.5311 151.986 82.7535 151.797 83.0198L151.215 83.8061C150.875 84.3644 150.526 84.9217 150.265 85.528C149.717 86.7246 149.334 88.0079 149.143 89.3304C148.797 91.9739 149.117 94.6958 150.185 97.0715C151.216 99.4507 152.975 101.493 155.167 102.724C156.26 103.335 157.469 103.729 158.695 103.796C159.919 103.872 161.139 103.557 162.177 102.96C163.214 102.365 164.079 101.471 164.533 100.394C164.985 99.3176 164.977 98.089 164.587 97.0199C164.203 95.9394 163.485 95.0167 162.647 94.2763C161.803 93.5363 160.82 92.9822 159.793 92.6179C157.712 91.9383 155.494 91.9744 153.512 92.509C151.523 93.0503 149.751 94.0745 148.359 95.3821C146.969 96.6979 145.994 98.3124 145.405 99.9605C144.214 103.283 144.517 106.655 145.54 109.232C146.593 111.83 148.264 113.68 149.791 114.903C151.332 116.135 152.734 116.799 153.697 117.178C154.182 117.363 154.556 117.494 154.812 117.566C155.067 117.645 155.195 117.693 155.195 117.693C155.195 117.693 155.062 117.663 154.805 117.592C154.545 117.529 154.167 117.406 153.677 117.228C152.705 116.865 151.287 116.212 149.726 114.984C148.178 113.765 146.479 111.911 145.4 109.287C144.352 106.684 144.03 103.272 145.225 99.8966C145.817 98.2221 146.803 96.5766 148.215 95.2319C149.629 93.8965 151.428 92.8506 153.453 92.2943C155.472 91.7458 157.73 91.7009 159.869 92.395C160.926 92.768 161.936 93.3346 162.806 94.0947C163.67 94.8552 164.416 95.8067 164.82 96.9368C165.229 98.0555 165.242 99.3537 164.766 100.492C164.288 101.629 163.382 102.563 162.305 103.183C161.227 103.805 159.954 104.134 158.681 104.057C157.409 103.988 156.161 103.581 155.038 102.954C152.789 101.693 150.993 99.6071 149.939 97.1793C148.849 94.7562 148.523 91.9858 148.876 89.2928C149.071 87.9455 149.462 86.6374 150.021 85.4155C150.288 84.7969 150.644 84.2272 150.992 83.657L151.587 82.8531C151.78 82.5811 152.027 82.3536 152.243 82.1028C153.155 81.1425 154.196 80.3123 155.338 79.6771C156.48 79.045 157.693 78.5718 158.934 78.2498C161.425 77.6461 164.026 77.6662 166.399 78.3603C168.75 79.0615 170.953 80.3458 172.341 82.2973C173.028 83.2648 173.435 84.4331 173.427 85.6008C173.424 86.7597 173.024 87.9352 172.201 88.7427C171.383 89.5539 170.247 89.9342 169.159 89.9677C168.058 90.0095 166.988 89.6865 166.066 89.1839C165.141 88.6782 164.329 88.0198 163.643 87.2793C162.932 86.559 162.351 85.7437 161.863 84.9052C160.878 83.2246 160.345 81.3985 160.127 79.6363C159.936 77.8675 160.083 76.1513 160.503 74.6053C160.938 73.061 161.649 71.6997 162.497 70.5723C164.205 68.3076 166.341 66.9654 168.161 66.2136C170.002 65.4608 171.561 65.2828 172.596 65.2425C173.117 65.2152 173.514 65.2425 173.781 65.2626C174.048 65.2797 174.184 65.2957 174.184 65.2957Z" fill="#263238"/>
<path d="M191.417 116.927H119.069V172.728H191.417V116.927Z" fill="#86E0E1"/>
<path d="M119.069 116.927L132.431 129.391H203.553L191.417 116.927H119.069Z" fill="#86E0E1"/>
<path d="M119.069 116.927C120.374 116.924 150.256 116.87 191.417 116.795H191.473L191.511 116.835C195.388 120.814 199.41 124.944 203.524 129.169C203.567 129.212 203.609 129.255 203.649 129.297L203.872 129.526L203.553 129.525C174.39 129.504 148.506 129.484 132.431 129.472H132.399L132.376 129.45C124.014 121.581 119.507 117.339 119.069 116.927C119.511 117.335 124.056 121.537 132.487 129.331L132.431 129.31C148.506 129.298 174.39 129.278 203.553 129.256L203.457 129.484C203.416 129.443 203.374 129.399 203.332 129.356C199.218 125.129 195.197 120.999 191.322 117.018L191.417 117.058C150.256 116.983 120.372 116.929 119.069 116.927Z" fill="#263238"/>
<path d="M140.799 142.657C140.033 142.659 139.334 143.346 139.322 144.112C139.308 144.878 139.983 145.589 140.748 145.617C141.513 145.645 142.237 144.984 142.279 144.219C142.322 143.454 141.674 142.718 140.911 142.662" fill="#263238"/>
<path d="M157.882 142.657C157.116 142.659 156.417 143.346 156.404 144.112C156.391 144.878 157.065 145.589 157.83 145.617C158.596 145.645 159.32 144.984 159.362 144.219C159.404 143.454 158.757 142.718 157.994 142.662" fill="#263238"/>
<path d="M157.991 156.015C157.914 156.047 157.8 154.619 156.56 152.808C155.95 151.909 155.037 150.957 153.826 150.185C152.622 149.413 151.094 148.858 149.442 148.797C147.789 148.767 146.232 149.238 144.987 149.943C143.735 150.647 142.772 151.548 142.114 152.411C140.776 154.152 140.584 155.572 140.508 155.535C140.499 155.533 140.514 155.45 140.55 155.291C140.594 155.135 140.628 154.894 140.74 154.606C140.926 154.017 141.306 153.192 141.962 152.296C142.615 151.4 143.586 150.462 144.865 149.727C146.135 148.991 147.739 148.497 149.45 148.529C151.159 148.59 152.732 149.173 153.96 149.977C155.196 150.781 156.115 151.771 156.717 152.701C157.324 153.632 157.657 154.477 157.811 155.075C157.907 155.369 157.927 155.612 157.963 155.77C157.99 155.929 158.001 156.014 157.991 156.015Z" fill="#263238"/>
<path opacity="0.5" d="M119.233 117.541L132.027 133.763H191.417V129.391H132.431L119.233 117.541Z" fill="black"/>
<path d="M177.151 172.6C177.076 172.6 177.016 162.894 177.016 150.924C177.016 138.95 177.076 129.246 177.151 129.246C177.225 129.246 177.285 138.95 177.285 150.924C177.285 162.894 177.225 172.6 177.151 172.6Z" fill="#263238"/>
<path d="M188.51 159.951H182.133V167.16H188.51V159.951Z" fill="#F5F5F5"/>
<path d="M119.069 116.927L104.215 129.391H119.069V116.927Z" fill="#86E0E1"/>
<g opacity="0.4">
<path d="M119.069 116.927L104.215 129.391H119.069V116.927Z" fill="black"/>
</g>
<path d="M193.552 172.728H110.368V236.887H193.552V172.728Z" fill="#86E0E1"/>
<path opacity="0.3" d="M193.552 172.728H110.368V236.887H193.552V172.728Z" fill="black"/>
<path d="M172.711 236.434C172.637 236.434 172.577 222.133 172.577 204.496C172.577 186.853 172.637 172.555 172.711 172.555C172.785 172.555 172.845 186.853 172.845 204.496C172.845 222.133 172.785 236.434 172.711 236.434Z" fill="#263238"/>
<path d="M186.499 222.283H180.122V229.492H186.499V222.283Z" fill="#F5F5F5"/>
<path d="M145.194 172.894H135.745V186.584H145.194V172.894Z" fill="#263238"/>
<path d="M145.194 223.006H135.745V236.696H145.194V223.006Z" fill="#263238"/>
<path d="M192.827 172.728C192.827 172.733 192.754 172.738 192.614 172.742C192.46 172.745 192.253 172.75 191.989 172.756C191.425 172.761 190.618 172.77 189.586 172.781C187.486 172.791 184.471 172.806 180.75 172.823C173.277 172.833 162.977 172.847 151.599 172.862C140.217 172.847 129.915 172.833 122.443 172.823C118.723 172.805 115.708 172.791 113.607 172.781C112.575 172.77 111.769 172.762 111.205 172.756C110.941 172.75 110.734 172.745 110.58 172.742C110.439 172.738 110.368 172.733 110.368 172.728C110.368 172.724 110.44 172.719 110.58 172.714C110.734 172.711 110.941 172.707 111.205 172.701C111.769 172.695 112.575 172.687 113.607 172.676C115.707 172.665 118.722 172.651 122.443 172.633C129.915 172.623 140.217 172.609 151.599 172.593C162.976 172.609 173.277 172.623 180.75 172.633C184.47 172.651 187.486 172.666 189.586 172.676C190.618 172.687 191.425 172.695 191.989 172.701C192.253 172.707 192.46 172.711 192.614 172.714C192.755 172.719 192.827 172.724 192.827 172.728Z" fill="#263238"/>
<path d="M50.2672 61.6455C49.6686 61.4984 46.7862 60.79 41.2093 59.42L41.2759 59.4097C39.2841 60.6801 36.5854 61.7054 33.4569 61.7539C31.9007 61.7482 30.2546 61.5609 28.6117 61.0464C26.9703 60.5351 25.3568 59.6868 23.8903 58.5433C20.9558 56.2734 18.6709 52.6356 18.1776 48.4483C17.9258 46.3683 18.0946 44.1815 18.7416 42.0881C19.4006 39.9998 20.5378 38.0215 22.0693 36.3558C22.8459 35.4755 23.7597 34.7454 24.6927 34.0699C25.1823 33.7676 25.6653 33.4533 26.17 33.1876L26.9404 32.8166L27.3243 32.6318L27.7231 32.4858C29.8336 31.6674 32.0797 31.3506 34.2356 31.4941C36.394 31.6329 38.4611 32.2366 40.2692 33.1881C42.0803 34.1375 43.633 35.4265 44.8518 36.8899C46.0736 38.3538 46.9622 39.9905 47.5272 41.6428C48.0917 43.2971 48.3492 44.9612 48.3642 46.5334C48.3827 49.6918 47.3956 52.4014 46.1944 54.3797L46.1954 54.2982C48.714 58.8426 49.9865 61.1388 50.2672 61.6455C49.9767 61.1445 48.6598 58.873 46.054 54.3782L46.0303 54.3374L46.0551 54.2961C47.2259 52.3281 48.1805 49.648 48.1449 46.535C48.1216 44.9854 47.86 43.3481 47.2981 41.7233C46.7357 40.0999 45.8564 38.4946 44.6505 37.0596C43.4482 35.6252 41.9198 34.3635 40.1396 33.4358C38.3625 32.5065 36.3341 31.9182 34.217 31.7851C32.1019 31.6478 29.9001 31.9605 27.832 32.7645L27.4409 32.9079L27.0647 33.089L26.3098 33.4528C25.815 33.7134 25.3423 34.022 24.8619 34.3181C23.9481 34.9807 23.0518 35.6964 22.2907 36.5591C20.7891 38.1923 19.674 40.1309 19.0265 42.1768C18.3908 44.2279 18.2231 46.3729 18.4671 48.4132C18.9449 52.5195 21.1772 56.0944 24.0539 58.3343C25.4914 59.4623 27.0745 60.3018 28.687 60.8111C30.3011 61.3235 31.9203 61.5149 33.4538 61.5289C36.5364 61.4969 39.2047 60.5041 41.1851 59.2642L41.2165 59.2446L41.2516 59.2538C46.8027 60.7265 49.6722 61.4876 50.2672 61.6455Z" fill="#263238"/>
<path d="M31.9719 39.8868L32.4507 47.4529C32.4899 48.0716 32.9843 48.5639 33.603 48.601C34.2557 48.6397 34.8243 48.1604 34.896 47.5102L35.7361 39.9059C35.7996 39.3301 35.3445 38.829 34.765 38.8368L32.9193 38.8626C32.3692 38.8703 31.9368 39.3373 31.9719 39.8868Z" fill="#71DEA4"/>
<path d="M35.6086 52.857C35.2872 53.825 34.2423 54.3493 33.2743 54.0278C32.3062 53.7063 31.782 52.6614 32.1035 51.6934C32.4249 50.7254 33.4698 50.2011 34.4378 50.5226C35.4059 50.8436 35.9301 51.889 35.6086 52.857Z" fill="#71DEA4"/>
</svg>
